<svg xmlns="http://www.w3.org/2000/svg" width="160.158" height="31" viewBox="0 0 160.158 31"><g transform="translate(-810.593 -348)"><g transform="translate(810.593 358.397)"><path d="M16.2,12.55,26.672,7.412a1.281,1.281,0,0,0,.449-.337.552.552,0,0,0,.131-.382.627.627,0,0,0-.182-.38,1.53,1.53,0,0,0-.49-.333l-10.472-4.8A2.967,2.967,0,0,0,15.42.97a4.4,4.4,0,0,0-1.561,0,2.967,2.967,0,0,0-.688.209L2.7,5.979a1.531,1.531,0,0,0-.49.333.627.627,0,0,0-.182.38.552.552,0,0,0,.131.382,1.282,1.282,0,0,0,.449.337L13.08,12.55a2.986,2.986,0,0,0,.729.237,4.4,4.4,0,0,0,1.662,0,2.986,2.986,0,0,0,.73-.237Z" transform="translate(-2.027 6.767)" fill="#5f3cd6" opacity="0.5"/><path d="M15.847,12.012,26.091,7.1a1.254,1.254,0,0,0,.44-.323.524.524,0,0,0,.131-.366.594.594,0,0,0-.178-.364A1.5,1.5,0,0,0,26,5.727l-10.245-4.6a2.951,2.951,0,0,0-.673-.2,4.4,4.4,0,0,0-1.527,0,2.951,2.951,0,0,0-.673.2L2.641,5.727a1.5,1.5,0,0,0-.48.319.594.594,0,0,0-.178.364.524.524,0,0,0,.131.366,1.254,1.254,0,0,0,.44.323L12.8,12.012a2.967,2.967,0,0,0,.713.226,4.4,4.4,0,0,0,1.625,0A2.967,2.967,0,0,0,15.847,12.012Z" transform="translate(-1.709 2.975)" fill="#763bc4"/><path d="M15.491,11.485,25.508,6.793a1.227,1.227,0,0,0,.431-.308.493.493,0,0,0,.127-.349.562.562,0,0,0-.175-.349,1.462,1.462,0,0,0-.468-.305l-10.014-4.4a2.934,2.934,0,0,0-.659-.192,4.4,4.4,0,0,0-1.494,0,2.934,2.934,0,0,0-.658.192L2.58,5.48a1.462,1.462,0,0,0-.468.305.562.562,0,0,0-.175.349.493.493,0,0,0,.127.349,1.227,1.227,0,0,0,.431.308l10.017,4.693a2.948,2.948,0,0,0,.7.218,4.4,4.4,0,0,0,1.587,0,2.948,2.948,0,0,0,.693-.218Z" transform="translate(-1.389 -0.827)" fill="#8642fe"/></g><text transform="translate(841.75 371)" fill="#333" font-size="23" font-family="NunitoSans-SemiBold, Nunito Sans" font-weight="600"><tspan x="0" y="0">components</tspan></text></g></svg>